<svg xmlns="http://www.w3.org/2000/svg">
  <defs>
    <symbol id="bar-chart-fill"  width="16" height="16" fill="currentColor" class="bi" viewBox="0 0 16 16">
      <path d="M1 11a1 1 0 0 1 1-1h2a1 1 0 0 1 1 1v3a1 1 0 0 1-1 1H2a1 1 0 0 1-1-1zm5-4a1 1 0 0 1 1-1h2a1 1 0 0 1 1 1v7a1 1 0 0 1-1 1H7a1 1 0 0 1-1-1zm5-5a1 1 0 0 1 1-1h2a1 1 0 0 1 1 1v12a1 1 0 0 1-1 1h-2a1 1 0 0 1-1-1z"/>
    </symbol>
	<symbol id="calculator" width="16" height="16" fill="currentColor" class="bi" viewBox="0 0 16 16">
	  <path d="M12 1a1 1 0 0 1 1 1v12a1 1 0 0 1-1 1H4a1 1 0 0 1-1-1V2a1 1 0 0 1 1-1zM4 0a2 2 0 0 0-2 2v12a2 2 0 0 0 2 2h8a2 2 0 0 0 2-2V2a2 2 0 0 0-2-2z"/>
	  <path d="M4 2.5a.5.5 0 0 1 .5-.5h7a.5.5 0 0 1 .5.5v2a.5.5 0 0 1-.5.5h-7a.5.5 0 0 1-.5-.5zm0 4a.5.5 0 0 1 .5-.5h1a.5.5 0 0 1 .5.5v1a.5.5 0 0 1-.5.5h-1a.5.5 0 0 1-.5-.5zm0 3a.5.5 0 0 1 .5-.5h1a.5.5 0 0 1 .5.5v1a.5.5 0 0 1-.5.5h-1a.5.5 0 0 1-.5-.5zm0 3a.5.5 0 0 1 .5-.5h1a.5.5 0 0 1 .5.5v1a.5.5 0 0 1-.5.5h-1a.5.5 0 0 1-.5-.5zm3-6a.5.5 0 0 1 .5-.5h1a.5.5 0 0 1 .5.5v1a.5.5 0 0 1-.5.5h-1a.5.5 0 0 1-.5-.5zm0 3a.5.5 0 0 1 .5-.5h1a.5.5 0 0 1 .5.5v1a.5.5 0 0 1-.5.5h-1a.5.5 0 0 1-.5-.5zm0 3a.5.5 0 0 1 .5-.5h1a.5.5 0 0 1 .5.5v1a.5.5 0 0 1-.5.5h-1a.5.5 0 0 1-.5-.5zm3-6a.5.5 0 0 1 .5-.5h1a.5.5 0 0 1 .5.5v1a.5.5 0 0 1-.5.5h-1a.5.5 0 0 1-.5-.5zm0 3a.5.5 0 0 1 .5-.5h1a.5.5 0 0 1 .5.5v4a.5.5 0 0 1-.5.5h-1a.5.5 0 0 1-.5-.5z"/>
	</symbol>
	<symbol id="copy" width="16" height="16" fill="currentColor" class="bi" viewBox="0 0 16 16">
	  <path fill-rule="evenodd" d="M4 2a2 2 0 0 1 2-2h8a2 2 0 0 1 2 2v8a2 2 0 0 1-2 2H6a2 2 0 0 1-2-2zm2-1a1 1 0 0 0-1 1v8a1 1 0 0 0 1 1h8a1 1 0 0 0 1-1V2a1 1 0 0 0-1-1zM2 5a1 1 0 0 0-1 1v8a1 1 0 0 0 1 1h8a1 1 0 0 0 1-1v-1h1v1a2 2 0 0 1-2 2H2a2 2 0 0 1-2-2V6a2 2 0 0 1 2-2h1v1z"/>
	</symbol>
	<symbol id="eye" width="16" height="16" fill="currentColor" class="bi" viewBox="0 0 16 16">
	  <path d="M16 8s-3-5.5-8-5.5S0 8 0 8s3 5.5 8 5.5S16 8 16 8M1.173 8a13 13 0 0 1 1.66-2.043C4.12 4.668 5.88 3.5 8 3.5s3.879 1.168 5.168 2.457A13 13 0 0 1 14.828 8q-.086.13-.195.288c-.335.48-.83 1.12-1.465 1.755C11.879 11.332 10.119 12.5 8 12.5s-3.879-1.168-5.168-2.457A13 13 0 0 1 1.172 8z"/>
	  <path d="M8 5.5a2.5 2.5 0 1 0 0 5 2.5 2.5 0 0 0 0-5M4.5 8a3.5 3.5 0 1 1 7 0 3.5 3.5 0 0 1-7 0"/>
	</symbol>
	<symbol id="eye-slash" width="16" height="16" fill="currentColor" class="bi" viewBox="0 0 16 16">
	  <path d="M13.359 11.238C15.06 9.72 16 8 16 8s-3-5.5-8-5.5a7 7 0 0 0-2.79.588l.77.771A6 6 0 0 1 8 3.5c2.12 0 3.879 1.168 5.168 2.457A13 13 0 0 1 14.828 8q-.086.13-.195.288c-.335.48-.83 1.12-1.465 1.755q-.247.248-.517.486z"/>
	  <path d="M11.297 9.176a3.5 3.5 0 0 0-4.474-4.474l.823.823a2.5 2.5 0 0 1 2.829 2.829zm-2.943 1.299.822.822a3.5 3.5 0 0 1-4.474-4.474l.823.823a2.5 2.5 0 0 0 2.829 2.829"/>
	  <path d="M3.35 5.47q-.27.24-.518.487A13 13 0 0 0 1.172 8l.195.288c.335.48.83 1.12 1.465 1.755C4.121 11.332 5.881 12.5 8 12.5c.716 0 1.39-.133 2.02-.36l.77.772A7 7 0 0 1 8 13.5C3 13.5 0 8 0 8s.939-1.721 2.641-3.238l.708.709zm10.296 8.884-12-12 .708-.708 12 12z"/>
	</symbol>
	<symbol id="info-square" width="16" height="16" fill="currentColor" class="bi" viewBox="0 0 16 16">
	  <path d="M14 1a1 1 0 0 1 1 1v12a1 1 0 0 1-1 1H2a1 1 0 0 1-1-1V2a1 1 0 0 1 1-1zM2 0a2 2 0 0 0-2 2v12a2 2 0 0 0 2 2h12a2 2 0 0 0 2-2V2a2 2 0 0 0-2-2z"/>
	  <path d="m8.93 6.588-2.29.287-.082.38.45.083c.294.07.352.176.288.469l-.738 3.468c-.194.897.105 1.319.808 1.319.545 0 1.178-.252 1.465-.598l.088-.416c-.2.176-.492.246-.686.246-.275 0-.375-.193-.304-.533zM9 4.5a1 1 0 1 1-2 0 1 1 0 0 1 2 0"/>
	</symbol>
	<symbol id="info-square-fill" width="16" height="16" fill="currentColor" class="bi" viewBox="0 0 16 16">
	  <path d="M0 2a2 2 0 0 1 2-2h12a2 2 0 0 1 2 2v12a2 2 0 0 1-2 2H2a2 2 0 0 1-2-2zm8.93 4.588-2.29.287-.082.38.45.083c.294.07.352.176.288.469l-.738 3.468c-.194.897.105 1.319.808 1.319.545 0 1.178-.252 1.465-.598l.088-.416c-.2.176-.492.246-.686.246-.275 0-.375-.193-.304-.533zM8 5.5a1 1 0 1 0 0-2 1 1 0 0 0 0 2"/>
	</symbol>
	<symbol id="journal-arrow-down" width="16" height="16" fill="currentColor" class="bi" viewBox="0 0 16 16">
	  <path fill-rule="evenodd" d="M8 5a.5.5 0 0 1 .5.5v3.793l1.146-1.147a.5.5 0 0 1 .708.708l-2 2a.5.5 0 0 1-.708 0l-2-2a.5.5 0 1 1 .708-.708L7.5 9.293V5.5A.5.5 0 0 1 8 5"/>
	  <path d="M3 0h10a2 2 0 0 1 2 2v12a2 2 0 0 1-2 2H3a2 2 0 0 1-2-2v-1h1v1a1 1 0 0 0 1 1h10a1 1 0 0 0 1-1V2a1 1 0 0 0-1-1H3a1 1 0 0 0-1 1v1H1V2a2 2 0 0 1 2-2"/>
	  <path d="M1 5v-.5a.5.5 0 0 1 1 0V5h.5a.5.5 0 0 1 0 1h-2a.5.5 0 0 1 0-1zm0 3v-.5a.5.5 0 0 1 1 0V8h.5a.5.5 0 0 1 0 1h-2a.5.5 0 0 1 0-1zm0 3v-.5a.5.5 0 0 1 1 0v.5h.5a.5.5 0 0 1 0 1h-2a.5.5 0 0 1 0-1z"/>
	</symbol>
    <symbol id="trash3" width="16" height="16" fill="currentColor" class="bi" viewBox="0 0 16 16">
      <path d="M6.5 1h3a.5.5 0 0 1 .5.5v1H6v-1a.5.5 0 0 1 .5-.5M11 2.5v-1A1.5 1.5 0 0 0 9.5 0h-3A1.5 1.5 0 0 0 5 1.5v1H1.5a.5.5 0 0 0 0 1h.538l.853 10.66A2 2 0 0 0 4.885 16h6.23a2 2 0 0 0 1.994-1.84l.853-10.66h.538a.5.5 0 0 0 0-1zm1.958 1-.846 10.58a1 1 0 0 1-.997.92h-6.23a1 1 0 0 1-.997-.92L3.042 3.5zm-7.487 1a.5.5 0 0 1 .528.47l.5 8.5a.5.5 0 0 1-.998.06L5 5.03a.5.5 0 0 1 .47-.53Zm5.058 0a.5.5 0 0 1 .47.53l-.5 8.5a.5.5 0 1 1-.998-.06l.5-8.5a.5.5 0 0 1 .528-.47M8 4.5a.5.5 0 0 1 .5.5v8.5a.5.5 0 0 1-1 0V5a.5.5 0 0 1 .5-.5"/>
    </symbol>
	<symbol id="filetype-json" width="16" height="16" fill="currentColor" class="bi" viewBox="0 0 16 16">
	  <path fill-rule="evenodd" d="M14 4.5V11h-1V4.5h-2A1.5 1.5 0 0 1 9.5 3V1H4a1 1 0 0 0-1 1v9H2V2a2 2 0 0 1 2-2h5.5zM4.151 15.29a1.2 1.2 0 0 1-.111-.449h.764a.58.58 0 0 0 .255.384q.105.073.25.114.142.041.319.041.245 0 .413-.07a.56.56 0 0 0 .255-.193.5.5 0 0 0 .084-.29.39.39 0 0 0-.152-.326q-.152-.12-.463-.193l-.618-.143a1.7 1.7 0 0 1-.539-.214 1 1 0 0 1-.352-.367 1.1 1.1 0 0 1-.123-.524q0-.366.19-.639.192-.272.528-.422.337-.15.777-.149.456 0 .779.152.326.153.5.41.18.255.2.566h-.75a.56.56 0 0 0-.12-.258.6.6 0 0 0-.246-.181.9.9 0 0 0-.37-.068q-.324 0-.512.152a.47.47 0 0 0-.185.384q0 .18.144.3a1 1 0 0 0 .404.175l.621.143q.326.075.566.211a1 1 0 0 1 .375.358q.135.222.135.56 0 .37-.188.656a1.2 1.2 0 0 1-.539.439q-.351.158-.858.158-.381 0-.665-.09a1.4 1.4 0 0 1-.478-.252 1.1 1.1 0 0 1-.29-.375m-3.104-.033a1.3 1.3 0 0 1-.082-.466h.764a.6.6 0 0 0 .074.27.5.5 0 0 0 .454.246q.285 0 .422-.164.137-.165.137-.466v-2.745h.791v2.725q0 .66-.357 1.005-.355.345-.985.345a1.6 1.6 0 0 1-.568-.094 1.15 1.15 0 0 1-.407-.266 1.1 1.1 0 0 1-.243-.39m9.091-1.585v.522q0 .384-.117.641a.86.86 0 0 1-.322.387.9.9 0 0 1-.47.126.9.9 0 0 1-.47-.126.87.87 0 0 1-.32-.387 1.55 1.55 0 0 1-.117-.641v-.522q0-.386.117-.641a.87.87 0 0 1 .32-.387.87.87 0 0 1 .47-.129q.265 0 .47.129a.86.86 0 0 1 .322.387q.117.255.117.641m.803.519v-.513q0-.565-.205-.973a1.46 1.46 0 0 0-.59-.63q-.38-.22-.916-.22-.534 0-.92.22a1.44 1.44 0 0 0-.589.628q-.205.407-.205.975v.513q0 .562.205.973.205.407.589.626.386.217.92.217.536 0 .917-.217.384-.22.589-.626.204-.41.205-.973m1.29-.935v2.675h-.746v-3.999h.662l1.752 2.66h.032v-2.66h.75v4h-.656l-1.761-2.676z"/>
	</symbol>
	<symbol id="gear-fill" width="16" height="16" fill="currentColor" class="bi" viewBox="0 0 16 16">
	  <path d="M9.405 1.05c-.413-1.4-2.397-1.4-2.81 0l-.1.34a1.464 1.464 0 0 1-2.105.872l-.31-.17c-1.283-.698-2.686.705-1.987 1.987l.169.311c.446.82.023 1.841-.872 2.105l-.34.1c-1.4.413-1.4 2.397 0 2.81l.34.1a1.464 1.464 0 0 1 .872 2.105l-.17.31c-.698 1.283.705 2.686 1.987 1.987l.311-.169a1.464 1.464 0 0 1 2.105.872l.1.34c.413 1.4 2.397 1.4 2.81 0l.1-.34a1.464 1.464 0 0 1 2.105-.872l.31.17c1.283.698 2.686-.705 1.987-1.987l-.169-.311a1.464 1.464 0 0 1 .872-2.105l.34-.1c1.4-.413 1.4-2.397 0-2.81l-.34-.1a1.464 1.464 0 0 1-.872-2.105l.17-.31c.698-1.283-.705-2.686-1.987-1.987l-.311.169a1.464 1.464 0 0 1-2.105-.872zM8 10.93a2.929 2.929 0 1 1 0-5.86 2.929 2.929 0 0 1 0 5.858z"/>
	</symbol>
  </defs>
</svg>
